<svg width="264" height="306" viewBox="0 0 264 306" fill="none" xmlns="http://www.w3.org/2000/svg">
<path d="M261.999 227.164L131.999 302.164L1.99939 227.164L1.99939 77.1639L131.999 2.16394L261.999 77.1639L261.999 227.164Z" fill="#1F1F1F"/>
<path fill-rule="evenodd" clip-rule="evenodd" d="M222.595 147.853L222.595 100.07L263.995 76.1639V123.969L222.595 147.853ZM177.194 174.047L177.194 126.264L218.594 102.358L218.594 150.163L177.194 174.047ZM131.997 152.337L131.997 200.119L173.397 176.236L173.397 128.43L131.997 152.337ZM222.595 152.665L222.595 200.448L263.995 176.564L263.995 128.759L222.595 152.665ZM177.194 178.859V226.642L218.594 202.758L218.594 154.953L177.194 178.859ZM131.997 252.714L131.997 204.932L173.397 181.025V228.831L131.997 252.714ZM222.595 205.265V253.048L263.995 229.164L263.995 181.359L222.595 205.265ZM177.194 231.459L177.194 279.242L218.594 255.358V207.553L177.194 231.459ZM131.997 305.314V257.532L173.397 233.625L173.397 281.43L131.997 305.314Z" fill="url(#paint0_linear_183_2)"/>
<path fill-rule="evenodd" clip-rule="evenodd" d="M222.595 100.07L263.995 76.1639V123.969L222.595 147.853L222.595 100.07ZM223.595 146.122L223.595 100.648L262.995 77.8961V123.392L223.595 146.122ZM178.194 126.841L217.594 104.09L217.594 149.585L178.194 172.315L178.194 126.841ZM177.194 126.264L218.594 102.358L218.594 150.163L177.194 174.047L177.194 126.264ZM132.997 152.914L172.397 130.163L172.397 175.658L132.997 198.388L132.997 152.914ZM131.997 152.337L173.397 128.43L173.397 176.236L131.997 200.119L131.997 152.337ZM223.595 153.243L262.995 130.491L262.995 175.986L223.595 198.717L223.595 153.243ZM222.595 152.665L263.995 128.759L263.995 176.564L222.595 200.448L222.595 152.665ZM177.194 178.859L218.594 154.953L218.594 202.758L177.194 226.642V178.859ZM178.194 224.91V179.436L217.594 156.685L217.594 202.18L178.194 224.91ZM132.997 205.509L172.397 182.758V228.253L132.997 250.983L132.997 205.509ZM131.997 204.932L173.397 181.025V228.831L131.997 252.714L131.997 204.932ZM223.595 205.842L262.995 183.091V228.586L223.595 251.316V205.842ZM222.595 205.265L263.995 181.359V229.164L222.595 253.048V205.265ZM177.194 231.459L218.594 207.553V255.358L177.194 279.242L177.194 231.459ZM178.194 277.51L178.194 232.036L217.594 209.285V254.78L178.194 277.51ZM132.997 258.109L172.397 235.357L172.397 280.853L132.997 303.583V258.109ZM131.997 257.532L173.397 233.625L173.397 281.43L131.997 305.314V257.532Z" fill="#1F1F1F"/>
<path fill-rule="evenodd" clip-rule="evenodd" d="M41.3994 100.07L41.3994 147.853L-0.000610352 123.969L-0.000610352 76.1639L41.3994 100.07ZM86.8003 174.047L86.8003 126.264L45.4003 102.358L45.4003 150.163L86.8003 174.047ZM131.997 200.119L131.997 152.337L90.597 128.43L90.597 176.236L131.997 200.119ZM41.3994 200.448L41.3994 152.665L-0.000610352 128.759L-0.000610352 176.564L41.3994 200.448ZM86.8003 178.859L86.8003 226.642L45.4003 202.758L45.4003 154.953L86.8003 178.859ZM131.997 204.932L131.997 252.714L90.597 228.831L90.597 181.025L131.997 204.932ZM41.3994 253.048L41.3994 205.265L-0.000610352 181.359L-0.000610352 229.164L41.3994 253.048ZM86.8003 231.459L86.8003 279.242L45.4003 255.358L45.4003 207.553L86.8003 231.459ZM131.997 257.532V305.314L90.597 281.43L90.597 233.625L131.997 257.532Z" fill="url(#paint1_linear_183_2)"/>
<path fill-rule="evenodd" clip-rule="evenodd" d="M41.3994 100.07L-0.000610352 76.1639L-0.000610352 123.969L41.3994 147.853L41.3994 100.07ZM40.3994 146.122L40.3994 100.648L0.99939 77.8961L0.99939 123.392L40.3994 146.122ZM86.8003 126.264L45.4003 102.358L45.4003 150.163L86.8003 174.047L86.8003 126.264ZM85.8003 172.315L85.8003 126.841L46.4003 104.09L46.4003 149.585L85.8003 172.315ZM130.997 152.914L91.597 130.163L91.597 175.658L130.997 198.388L130.997 152.914ZM131.997 152.337L90.597 128.43L90.597 176.236L131.997 200.119L131.997 152.337ZM40.3994 153.243L0.99939 130.491L0.99939 175.986L40.3994 198.717L40.3994 153.243ZM41.3994 152.665L-0.000610352 128.759L-0.000610352 176.564L41.3994 200.448L41.3994 152.665ZM85.8003 179.436L46.4003 156.685L46.4003 202.18L85.8003 224.91L85.8003 179.436ZM86.8003 178.859L45.4003 154.953L45.4003 202.758L86.8003 226.642L86.8003 178.859ZM130.997 205.509L91.597 182.758L91.597 228.253L130.997 250.983L130.997 205.509ZM131.997 204.932L90.597 181.025L90.597 228.831L131.997 252.714L131.997 204.932ZM40.3994 205.842L0.99939 183.091L0.99939 228.586L40.3994 251.316L40.3994 205.842ZM41.3994 205.265L-0.000610352 181.359L-0.000610352 229.164L41.3994 253.048L41.3994 205.265ZM85.8003 232.036L46.4003 209.285L46.4003 254.78L85.8003 277.51L85.8003 232.036ZM86.8003 231.459L45.4003 207.553L45.4003 255.358L86.8003 279.242L86.8003 231.459ZM130.997 258.109L91.597 235.357L91.597 280.853L130.997 303.583V258.109ZM131.997 257.532L90.597 233.625L90.597 281.43L131.997 305.314V257.532Z" fill="#1F1F1F"/>
<path fill-rule="evenodd" clip-rule="evenodd" d="M173.397 23.9027L131.998 47.805L90.5961 23.9027L131.995 0.000366211L173.397 23.9027ZM177.4 74.0006L218.798 50.0982L177.396 26.1959L135.997 50.0982L177.4 74.0006ZM222.596 100.071L263.995 76.1683L222.592 52.266L181.194 76.1683L222.596 100.071ZM86.5946 73.9999L127.993 50.0975L86.5908 26.1952L45.1923 50.0975L86.5946 73.9999ZM173.394 76.293L131.996 100.195L90.5934 76.293L131.992 52.3907L173.394 76.293ZM218.591 102.363L177.192 126.266L135.79 102.363L177.188 78.4609L218.591 102.363ZM41.4017 100.066L82.8002 76.1639L41.3979 52.2616L-0.000610352 76.1639L41.4017 100.066ZM128.201 102.359L86.8028 126.262L45.4005 102.359L86.799 78.4571L128.201 102.359ZM173.398 128.43L131.999 152.332L90.597 128.43L131.996 104.527L173.398 128.43Z" fill="url(#paint2_linear_183_2)"/>
<path fill-rule="evenodd" clip-rule="evenodd" d="M173.397 23.9027L131.995 0.000366211L90.5961 23.9027L131.998 47.805L173.397 23.9027ZM171.397 23.9027L131.995 1.15507L92.5961 23.9026L131.998 46.6503L171.397 23.9027ZM218.798 50.0982L177.396 26.1959L135.997 50.0982L177.4 74.0006L218.798 50.0982ZM216.798 50.0983L177.396 27.3506L137.997 50.0982L177.399 72.8459L216.798 50.0983ZM263.995 76.1683L222.592 52.266L181.194 76.1683L222.596 100.071L263.995 76.1683ZM261.995 76.1684L222.592 53.4208L183.194 76.1683L222.596 98.916L261.995 76.1684ZM127.993 50.0975L86.5908 26.1952L45.1923 50.0975L86.5946 73.9999L127.993 50.0975ZM125.993 50.0975L86.5908 27.3499L47.1923 50.0974L86.5945 72.8452L125.993 50.0975ZM173.394 76.293L131.992 52.3907L90.5934 76.293L131.996 100.195L173.394 76.293ZM171.394 76.2931L131.992 53.5454L92.5934 76.293L131.996 99.0407L171.394 76.2931ZM218.591 102.363L177.188 78.4609L135.79 102.363L177.192 126.266L218.591 102.363ZM216.591 102.363L177.188 79.6156L137.79 102.363L177.192 125.111L216.591 102.363ZM82.8002 76.1639L41.3979 52.2616L-0.000610352 76.1639L41.4017 100.066L82.8002 76.1639ZM80.8002 76.1639L41.3979 53.4163L1.9994 76.1639L41.4017 98.9116L80.8002 76.1639ZM128.201 102.359L86.799 78.4571L45.4005 102.359L86.8028 126.262L128.201 102.359ZM126.201 102.359L86.799 79.6118L47.4005 102.359L86.8028 125.107L126.201 102.359ZM173.398 128.43L131.996 104.527L90.597 128.43L131.999 152.332L173.398 128.43ZM171.398 128.43L131.996 105.682L92.597 128.43L131.999 151.177L171.398 128.43Z" fill="#1F1F1F"/>
<defs>
<linearGradient id="paint0_linear_183_2" x1="131.999" y1="136" x2="240.999" y2="251" gradientUnits="userSpaceOnUse">
<stop stop-color="#262581"/>
<stop offset="0.488379" stop-color="#22206D"/>
<stop offset="1" stop-color="#17158B"/>
</linearGradient>
<linearGradient id="paint1_linear_183_2" x1="-47.5006" y1="79.5004" x2="138.499" y2="269.5" gradientUnits="userSpaceOnUse">
<stop offset="0.000453062" stop-color="#FA6767"/>
<stop offset="0.713542" stop-color="#ED2F2F"/>
<stop offset="1" stop-color="#D51717"/>
</linearGradient>
<linearGradient id="paint2_linear_183_2" x1="-84.5006" y1="76.0004" x2="341.499" y2="76.0003" gradientUnits="userSpaceOnUse">
<stop offset="0.1987" stop-color="white"/>
<stop offset="0.817755" stop-color="#DFDFDF"/>
</linearGradient>
</defs>
</svg>
